<svg xmlns="http://www.w3.org/2000/svg" height="400" viewBox="0 0 400 400" width="400"><defs><marker id="k" refY="0" refX="0" overflow="visible" orient="auto"><path stroke-linejoin="round" d="M5.231 2.42L-1.324.01 5.23-2.401C4.184-.978 4.19.969 5.231 2.42z" fill-rule="evenodd" stroke="#000" stroke-width=".375"/></marker><marker id="j" refY="0" refX="0" overflow="visible" orient="auto"><path stroke-linejoin="round" d="M5.231 2.42L-1.324.01 5.23-2.401C4.184-.978 4.19.969 5.231 2.42z" fill-rule="evenodd" stroke="#000" stroke-width=".375"/></marker><marker id="l" refY="0" refX="0" overflow="visible" orient="auto"><path stroke-linejoin="round" d="M5.231 2.42L-1.324.01 5.23-2.401C4.184-.978 4.19.969 5.231 2.42z" fill-rule="evenodd" stroke="#000" stroke-width=".375"/></marker><marker id="i" refY="0" refX="0" orient="auto" overflow="visible"><path stroke-linejoin="round" d="M5.231 2.42L-1.324.01 5.23-2.401C4.184-.978 4.19.969 5.231 2.42z" fill-rule="evenodd" stroke="#000" stroke-width=".375"/></marker><marker id="h" refY="0" refX="0" orient="auto" overflow="visible"><path stroke-linejoin="round" d="M5.231 2.42L-1.324.01 5.23-2.401C4.184-.978 4.19.969 5.231 2.42z" fill-rule="evenodd" stroke="#000" stroke-width=".375"/></marker><marker id="g" refY="0" refX="0" overflow="visible" orient="auto"><path stroke-linejoin="round" d="M5.231 2.42L-1.324.01 5.23-2.401C4.184-.978 4.19.969 5.231 2.42z" fill-rule="evenodd" stroke="#000" stroke-width=".375"/></marker><marker id="f" refY="0" refX="0" overflow="visible" orient="auto"><path stroke-linejoin="round" d="M5.231 2.42L-1.324.01 5.23-2.401C4.184-.978 4.19.969 5.231 2.42z" fill-rule="evenodd" stroke="#000" stroke-width=".375"/></marker><marker id="a" refY="0" refX="0" orient="auto" overflow="visible"><path stroke-linejoin="round" d="M5.231 2.42L-1.324.01 5.23-2.401C4.184-.978 4.19.969 5.231 2.42z" fill-rule="evenodd" stroke="#c8281e" stroke-width=".375" fill="#c8281e"/></marker><marker id="b" refY="0" refX="0" orient="auto" overflow="visible"><path stroke-linejoin="round" d="M5.231 2.42L-1.324.01 5.23-2.401C4.184-.978 4.19.969 5.231 2.42z" fill-rule="evenodd" stroke="#2850c8" stroke-width=".375" fill="#2850c8"/></marker><marker id="e" refY="0" refX="0" overflow="visible" orient="auto"><path stroke-linejoin="round" d="M5.231 2.42L-1.324.01 5.23-2.401C4.184-.978 4.19.969 5.231 2.42z" fill-rule="evenodd" stroke="#c8281e" stroke-width=".375" fill="#c8281e"/></marker><marker id="d" refY="0" refX="0" overflow="visible" orient="auto"><path stroke-linejoin="round" d="M5.231 2.42L-1.324.01 5.23-2.401C4.184-.978 4.19.969 5.231 2.42z" fill-rule="evenodd" stroke="#c8281e" stroke-width=".375" fill="#c8281e"/></marker><marker id="c" refY="0" refX="0" overflow="visible" orient="auto"><path stroke-linejoin="round" d="M5.231 2.42L-1.324.01 5.23-2.401C4.184-.978 4.19.969 5.231 2.42z" fill-rule="evenodd" stroke="#466e32" stroke-width=".375" fill="#466e32"/></marker></defs><g font-family="sans-serif" word-spacing="0" letter-spacing="0"><text font-size="40" y="197.891" x="8.14"/><text font-size="40" y="197.891" x="93.64"/><text y="202.483" x="166.024"><tspan y="202.483" x="154.928" style="text-align:center" font-size="30" text-anchor="middle">...</tspan></text><text y="197.891" x="260.14"/><text y="197.891" x="176.14"/></g><path stroke-linejoin="round" stroke="#000" stroke-width="1.8" fill="#edcdce" d="M322.4 291.8h43.2v93.6h-43.2z"/><text font-size="27" y="343.161" x="344.198" font-family="sans-serif" word-spacing="0" letter-spacing="0"><tspan y="343.161" x="344.198" style="text-align:center" font-size="25" text-anchor="middle">x<tspan font-size="65%" baseline-shift="sub">n</tspan></tspan></text><g stroke-width="1.8"><path opacity=".25" d="M339 253.1v36" marker-start="url(#a)" stroke="#c8281e" fill="none"/><path stroke-linejoin="round" stroke="#000" fill="#dde8d3" d="M322.4 153.2h43.2v93.6h-43.2z"/><path opacity=".25" d="M339 114.5v36" marker-start="url(#b)" stroke="#2850c8" fill="none"/><path stroke-linejoin="round" stroke="#000" fill="#ccdaf3" d="M322.4 14.6h43.2v93.6h-43.2z"/></g><text y="65.636" x="344" font-family="sans-serif" word-spacing="0" letter-spacing="0"><tspan y="65.636" x="344" font-size="25" style="text-align:center" text-anchor="middle">y</tspan></text><path opacity=".25" d="M227.33 205.02h-26" marker-start="url(#c)" stroke="#466e32" stroke-width="1.8" fill="none"/><path stroke-linejoin="round" stroke="#000" stroke-width="1.8" fill="#edcdce" d="M236.9 291.8h43.2v93.6h-43.2z"/><text font-size="27" y="343.161" x="258.894" font-family="sans-serif" word-spacing="0" letter-spacing="0"><tspan y="343.161" x="258.894" style="text-align:center" font-size="25" text-anchor="middle">x<tspan font-size="13.75" baseline-shift="sub">n-1</tspan></tspan></text><g stroke-width="1.8"><path opacity=".25" d="M253.5 253.1v36" marker-start="url(#d)" stroke="#c8281e" fill="none"/><path stroke-linejoin="round" stroke="#000" fill="#dde8d3" d="M236.9 153.2h43.2v93.6h-43.2z"/><path opacity=".25" d="M312.83 205.02h-26" marker-start="url(#c)" stroke="#466e32" fill="none"/></g><text y="205.161" x="258.003" font-family="sans-serif" word-spacing="0" letter-spacing="0"><tspan y="205.161" x="258.003" font-size="25" style="text-align:center" text-anchor="middle">h<tspan font-size="13.75" baseline-shift="sub">n-1</tspan></tspan></text><text y="205.161" x="344.198" font-family="sans-serif" word-spacing="0" letter-spacing="0"><tspan y="205.161" x="344.198" font-size="25" style="text-align:center" text-anchor="middle">h<tspan font-size="65%" baseline-shift="sub">n</tspan></tspan></text><g stroke-width="1.8"><path stroke-linejoin="round" stroke="#000" fill="#edcdce" d="M33.4 291.8h43.2v93.6H33.4z"/><path opacity=".25" d="M50 253.1v36" marker-start="url(#e)" stroke="#c8281e" fill="none"/><path stroke-linejoin="round" stroke="#000" fill="#dde8d3" d="M33.4 153.2h43.2v93.6H33.4z"/></g><text y="206.882" x="54.408" font-family="sans-serif" word-spacing="0" letter-spacing="0"><tspan y="206.882" x="54.408" font-size="25" style="text-align:center" text-anchor="middle">h<tspan font-size="65%" baseline-shift="sub">0</tspan></tspan></text><path opacity=".25" d="M109.33 205.02h-26" marker-start="url(#c)" stroke="#466e32" stroke-width="1.8" fill="none"/><text font-size="27" y="342.821" x="55.183" font-family="sans-serif" word-spacing="0" letter-spacing="0"><tspan y="342.821" x="55.183" style="text-align:center" font-size="25" text-anchor="middle">x<tspan font-size="65%" baseline-shift="sub">0</tspan></tspan></text><g stroke="#000" stroke-width="1.8" fill="none"><path d="M349 147.78v-36" marker-start="url(#f)"/><path d="M349 286.38v-36" marker-start="url(#g)"/><path d="M263.5 286.38v-36" marker-start="url(#h)"/><path d="M60 286.38v-36" marker-start="url(#i)"/><path d="M204.05 195.02h26" marker-start="url(#j)"/><path d="M86.051 195.02h26" marker-start="url(#k)"/><path d="M289.55 195.02h26" marker-start="url(#l)"/></g></svg>